<?xml version="1.0" encoding="UTF-8"?>
<svg width="24px" height="24px" viewBox="0 0 24 24" version="1.1" xmlns="http://www.w3.org/2000/svg">
    <g stroke="none" stroke-width="1" fill="#00A1D6" fill-rule="evenodd">
        <path d="M17.8,4.74 L15.9,2.83 L14.2,4.24 L13.7,4.24 L12,2.83 L10.2,4.34 L5.2,4.34 L5.2,16.04 L18.8,16.04 L18.8,4.74 L17.8,4.74 Z M17.1,14.34 L6.9,14.34 L6.9,6.04 L17.1,6.04 L17.1,14.34 Z M10.8,8.34 C10.8,8.89 10.35,9.34 9.8,9.34 C9.25,9.34 8.8,8.89 8.8,8.34 C8.8,7.79 9.25,7.34 9.8,7.34 C10.35,7.34 10.8,7.79 10.8,8.34 Z M15.2,8.34 C15.2,8.89 14.75,9.34 14.2,9.34 C13.65,9.34 13.2,8.89 13.2,8.34 C13.2,7.79 13.65,7.34 14.2,7.34 C14.75,7.34 15.2,7.79 15.2,8.34 Z M13.8,20.34 L10.2,20.34 L12,18.54 L13.8,20.34 Z" fill-rule="nonzero"></path>
    </g>
</svg> 