<?xml version="1.0" encoding="UTF-8"?>
<svg width="24px" height="24px" viewBox="0 0 24 24" version="1.1" xmlns="http://www.w3.org/2000/svg">
    <g stroke="none" stroke-width="1" fill="#000000" fill-rule="evenodd">
        <path d="M16.6,4.5 C16.2,3.5 15.2,2.9 14,2.9 L13,2.9 L13,11.8 C13,13 12,14 10.8,14 C9.6,14 8.6,13 8.6,11.8 C8.6,10.6 9.6,9.6 10.8,9.6 L10.8,6.7 C8,6.7 5.8,8.9 5.8,11.7 C5.8,14.5 8,16.7 10.8,16.7 C13.6,16.7 15.8,14.5 15.8,11.7 L15.8,7.5 C16.8,8.1 18.1,8.5 19.4,8.5 L19.4,5.6 C19.4,5.6 17.8,5.7 16.6,4.5 Z" fill-rule="nonzero"></path>
    </g>
</svg> 