<?xml version="1.0" encoding="UTF-8"?>
<svg width="24px" height="24px" viewBox="0 0 24 24" version="1.1" xmlns="http://www.w3.org/2000/svg">
    <g stroke="none" stroke-width="1" fill="#07C160" fill-rule="evenodd">
        <path d="M8.2,3.5 C3.7,3.5 0,6.5 0,10.2 C0,12.3 1.2,14.2 3.2,15.4 L2.4,18 L5.3,16.3 C6.3,16.6 7.2,16.7 8.2,16.7 C7.9,16.1 7.8,15.4 7.8,14.7 C7.8,11.4 10.8,8.7 14.5,8.7 C14.9,8.7 15.4,8.8 15.8,8.9 C15.1,5.8 11.9,3.5 8.2,3.5 Z M5.7,8.5 C4.9,8.5 4.3,7.9 4.3,7.1 C4.3,6.3 4.9,5.7 5.7,5.7 C6.5,5.7 7.1,6.3 7.1,7.1 C7.1,7.9 6.5,8.5 5.7,8.5 Z M11.4,8.5 C10.6,8.5 10,7.9 10,7.1 C10,6.3 10.6,5.7 11.4,5.7 C12.2,5.7 12.8,6.3 12.8,7.1 C12.8,7.9 12.2,8.5 11.4,8.5 Z M14.5,20.4 C18.3,20.4 21.2,17.7 21.2,14.5 C21.2,11.2 18.3,8.6 14.5,8.6 C10.7,8.6 7.8,11.2 7.8,14.5 C7.8,17.7 10.7,20.4 14.5,20.4 Z M12.5,12.4 C11.9,12.4 11.4,12 11.4,11.3 C11.4,10.7 11.9,10.3 12.5,10.3 C13.1,10.3 13.6,10.7 13.6,11.3 C13.6,12 13.1,12.4 12.5,12.4 Z M16.9,12.4 C16.3,12.4 15.8,12 15.8,11.3 C15.8,10.7 16.3,10.3 16.9,10.3 C17.5,10.3 18,10.7 18,11.3 C18,12 17.5,12.4 16.9,12.4 Z" fill-rule="nonzero"></path>
    </g>
</svg> 