<?xml version="1.0" encoding="UTF-8"?>
<svg width="24px" height="24px" viewBox="0 0 24 24" version="1.1" xmlns="http://www.w3.org/2000/svg">
    <g stroke="none" stroke-width="1" fill="#FE2C55" fill-rule="evenodd">
        <path d="M12,2 C6.48,2 2,6.48 2,12 C2,17.52 6.48,22 12,22 C17.52,22 22,17.52 22,12 C22,6.48 17.52,2 12,2 Z M15.5,7 C16.33,7 17,7.67 17,8.5 L17,15.5 C17,16.33 16.33,17 15.5,17 L8.5,17 C7.67,17 7,16.33 7,15.5 L7,8.5 C7,7.67 7.67,7 8.5,7 L15.5,7 Z M13.64,10.24 C13.41,10.09 13.14,10 12.84,10 L11.16,10 C10.86,10 10.59,10.09 10.36,10.24 C10.13,10.39 9.96,10.61 9.88,10.87 L9.12,13.13 C9.04,13.39 9.05,13.67 9.15,13.92 C9.25,14.17 9.44,14.37 9.68,14.5 C9.92,14.63 10.2,14.67 10.47,14.62 C10.73,14.57 10.96,14.43 11.14,14.24 L12,13.29 L12.86,14.24 C13.04,14.43 13.27,14.57 13.53,14.62 C13.8,14.67 14.08,14.63 14.32,14.5 C14.56,14.37 14.75,14.17 14.85,13.92 C14.95,13.67 14.96,13.39 14.88,13.13 L14.12,10.87 C14.04,10.61 13.87,10.39 13.64,10.24 Z" fill-rule="nonzero"></path>
    </g>
</svg> 