<?xml version="1.0" encoding="UTF-8" standalone="no"?>
<svg
   width="512"
   height="512"
   viewBox="0 0 512 512"
   fill="none"
   version="1.1"
   xmlns="http://www.w3.org/2000/svg">
  <rect
     width="512"
     height="512"
     rx="80"
     fill="#1a1a2e" />
  <rect
     x="100"
     y="140"
     width="312"
     height="232"
     rx="24"
     fill="#0f3460"
     stroke="#e94560"
     stroke-width="8" />
  <circle
     cx="150"
     cy="200"
     r="20"
     fill="#e94560" />
  <circle
     cx="210"
     cy="200"
     r="20"
     fill="#16213e" />
  <circle
     cx="270"
     cy="200"
     r="20"
     fill="#e94560" />
  <circle
     cx="330"
     cy="200"
     r="20"
     fill="#16213e" />
  <rect
     x="130"
     y="250"
     width="252"
     height="12"
     rx="6"
     fill="#e94560" />
  <rect
     x="130"
     y="280"
     width="200"
     height="12"
     rx="6"
     fill="#16213e" />
  <rect
     x="130"
     y="310"
     width="160"
     height="12"
     rx="6"
     fill="#e94560" />
  <path
     d="M256 100L286 70H226L256 100Z"
     fill="#e94560" />
  <path
     d="M 158.59375,390 H 172.125 L 186.75,425.34375 201.46875,390 H 214.6875 V 450 H 205.03125 V 432.28125 L 206.0625,404.53125 190.6875,440.625 H 182.625 L 167.34375,404.90625 168.375,432.28125 V 450 H 158.59375 Z"
     fill="#ffffff" />
  <path
     d="m 240.32812,450.75 c -3.18749,0 -6.0625,-0.53125 -8.625,-1.59375 -2.5625,-1.0625 -4.67187,-2.625 -6.32812,-4.6875 -1.65625,-2.0625 -2.90625,-4.625 -3.75,-7.6875 -0.84375,-3.0625 -1.26563,-6.5625 -1.26563,-10.5 v -1.3125 c 0,-4.125 0.42188,-7.73437 1.26563,-10.82812 0.84375,-3.09375 2.0625,-5.65625 3.65625,-7.6875 1.59375,-2.03125 3.60937,-3.54688 6.04687,-4.54688 2.4375,-1 5.25,-1.5 8.4375,-1.5 3.125,0 5.89063,0.5 8.29688,1.5 2.40625,1 4.42187,2.45313 6.04687,4.35938 1.62501,1.90625 2.85938,4.23437 3.70313,6.98437 0.84375,2.75 1.26563,5.875 1.26563,9.375 v 3.84375 h -28.21876 v 0.375 c 0,2.43749 0.17188,4.67187 0.51563,6.70312 0.34375,2.03125 0.95312,3.76563 1.82813,5.20313 0.875,1.4375 2.03124,2.57812 3.46874,3.42187 1.4375,0.84375 3.26563,1.26563 5.48438,1.26563 2,0 3.76562,-0.28125 5.29687,-0.84375 1.53125,-0.5625 2.9375,-1.45313 4.21875,-2.67188 l 3.84375,6.46875 c -1.5,1.5 -3.375,2.67188 -5.625,3.51563 -2.25,0.84375 -4.85937,1.26562 -7.82812,1.26562 z m -0.75,-39.65625 c -1.6875,0 -3.125,0.35938 -4.3125,1.07813 -1.1875,0.71875 -2.15625,1.71874 -2.90625,3.00000 -0.75,1.28125 -1.32813,2.8125 -1.73438,4.59375 -0.40625,1.78125 -0.67187,3.75 -0.79687,5.90625 h 18.375 v -0.5625 c 0,-1.75 -0.15625,-3.35937 -0.46875,-4.82812 -0.3125,-1.46875 -0.84375,-2.73438 -1.59375,-3.79688 -0.75,-1.0625 -1.73438,-1.89062 -2.95313,-2.48437 -1.21875,-0.59375 -2.71875,-0.89063 -4.5,-0.89063 z"
     fill="#ffffff" />
  <path
     d="m 269.95312,401.0625 0.28126,5.25 c 0.99999,-1.8125 2.375,-3.25 4.125,-4.3125 1.75,-1.0625 3.85937,-1.59375 6.32812,-1.59375 2.375,0 4.35938,0.54688 5.95312,1.64063 1.59376,1.09375 2.76563,2.75 3.51563,4.96874 1.0625,-2.03124 2.45313,-3.65624 4.17187,-4.87499 1.71875,-1.21875 3.79688,-1.82813 6.23438,-1.82813 3.62499,0 6.40625,1.21876 8.34375,3.65626 1.9375,2.4375 2.90625,6.06249 2.90625,10.87499 v 25.21875 h -9.75 v -25.21875 c 0,-2.5 -0.42188,-4.21875 -1.26563,-5.15625 -0.84375,-0.9375 -2.01562,-1.40625 -3.51562,-1.40625 -1.3125,0 -2.46875,0.375 -3.46875,1.125 -1,0.75 -1.75,1.75 -2.25,3 V 450 h -9.75 v -25.21875 c 0,-2.5 -0.42188,-4.21875 -1.26563,-5.15625 -0.84375,-0.9375 -2.01562,-1.40625 -3.51562,-1.40625 -1.3125,0 -2.45313,0.35938 -3.42188,1.07813 -0.96875,0.71875 -1.73437,1.70312 -2.29687,2.95312 V 450 h -9.75 v -48.9375 z"
     fill="#ffffff" />
  <path
     d="m 347.85938,450.75 c -3.12501,0 -5.89063,-0.5625 -8.29688,-1.6875 -2.40625,-1.125 -4.4375,-2.73437 -6.09375,-4.82812 -1.65625,-2.09375 -2.90625,-4.65625 -3.75,-7.6875 -0.84375,-3.03125 -1.26563,-6.42188 -1.26563,-10.17188 v -1.6875 c 0,-3.9375 0.42188,-7.42187 1.26563,-10.45312 0.84375,-3.03125 2.07812,-5.59375 3.70312,-7.6875 1.625,-2.09375 3.625,-3.6875 6,-4.78125 2.375,-1.09375 5.09375,-1.64063 8.15625,-1.64063 3.24999,0 6.09375,0.625 8.53125,1.875 2.4375,1.25 4.42187,2.96875 5.95312,5.15625 1.53126,2.1875 2.67188,4.78125 3.42188,7.78125 0.75,3 1.125,6.28125 1.125,9.84375 v 3.9375 h -27.9375 v 0.5625 c 0,5.24999 0.9375,9.1875 2.8125,11.8125 1.875,2.625 4.46875,3.9375 7.78125,3.9375 2.4375,0 4.51562,-0.45313 6.23437,-1.35938 1.71875,-0.90625 3.26563,-2.26562 4.64063,-4.07812 l 3.84375,5.90625 c -1.62501,2.125 -3.70313,3.79687 -6.23438,5.01562 -2.53125,1.21875 -5.48437,1.82813 -8.85937,1.82813 z M 346.875,410.9375 c -2.62501,0 -4.75,1.09375 -6.375,3.28125 -1.625,2.1875 -2.5625,5.28125 -2.8125,9.28125 h 17.53125 v -0.5625 c 0,-3.875 -0.73438,-6.92187 -2.20313,-9.14062 -1.46875,-2.21875 -3.53125,-3.32813 -6.1875,-3.32813 z"
     fill="#ffffff" />
  <path
     d="m 368.0625,450 v -48.9375 h 9.75 V 450 Z m 9.75,-56.34375 h -9.75 v -9.09375 h 9.75 z"
     fill="#ffffff" />
  <path
     d="m 386.625,450 v -48.9375 h 9.75 v 8.34375 c 0.99999,-2.81249 2.42187,-5.01562 4.26562,-6.60937 1.84375,-1.59375 4.09375,-2.39063 6.75,-2.39063 0.24999,0 0.57813,0.0313 0.98438,0.0938 0.40625,0.0625 0.70312,0.125 0.89062,0.1875 l -0.84375,9.9375 c -0.37501,-0.125 -0.8125,-0.21875 -1.3125,-0.28125 -0.5,-0.0625 -1.01563,-0.0937 -1.54688,-0.0937 -1.93749,0 -3.625,0.375 -5.0625,1.125 -1.4375,0.75 -2.65625,1.8125 -3.65625,3.1875 -1,1.375 -1.76562,3.03125 -2.29687,4.96875 -0.53125,1.9375 -0.79688,4.09375 -0.79688,6.46875 V 450 Z"
     fill="#ffffff" />
  <path
     d="m 438.89062,450.75 c -3.12499,0 -5.89062,-0.5625 -8.29687,-1.6875 -2.40625,-1.125 -4.4375,-2.73437 -6.09375,-4.82812 -1.65625,-2.09375 -2.90625,-4.65625 -3.75,-7.6875 -0.84375,-3.03125 -1.26563,-6.42188 -1.26563,-10.17188 v -1.6875 c 0,-3.9375 0.42188,-7.42187 1.26563,-10.45312 0.84375,-3.03125 2.07813,-5.59375 3.70313,-7.6875 1.625,-2.09375 3.625,-3.6875 6,-4.78125 2.375,-1.09375 5.09375,-1.64063 8.15625,-1.64063 3.24999,0 6.09375,0.625 8.53125,1.875 2.4375,1.25 4.42187,2.96875 5.95312,5.15625 1.53126,2.1875 2.67188,4.78125 3.42188,7.78125 0.75,3 1.125,6.28125 1.125,9.84375 v 3.9375 h -27.9375 v 0.5625 c 0,5.24999 0.9375,9.1875 2.8125,11.8125 1.875,2.625 4.46875,3.9375 7.78125,3.9375 2.4375,0 4.51562,-0.45313 6.23437,-1.35938 1.71875,-0.90625 3.26563,-2.26562 4.64063,-4.07812 l 3.84375,5.90625 c -1.625,2.125 -3.70312,3.79687 -6.23437,5.01562 -2.53126,1.21875 -5.48438,1.82813 -8.85938,1.82813 z M 437.90625,410.9375 c -2.625,0 -4.75,1.09375 -6.375,3.28125 -1.625,2.1875 -2.5625,5.28125 -2.8125,9.28125 h 17.53125 v -0.5625 c 0,-3.875 -0.73437,-6.92187 -2.20312,-9.14062 -1.46875,-2.21875 -3.53125,-3.32813 -6.1875,-3.32813 z"
     fill="#ffffff" />
</svg> 