<?xml version="1.0" encoding="UTF-8" standalone="no"?>
<svg
   width="512"
   height="512"
   viewBox="0 0 512 512"
   fill="none"
   version="1.1"
   xmlns="http://www.w3.org/2000/svg">
  <style>
    @media (prefers-color-scheme: dark) {
      .primary-bg { fill: #1a1a2e; }
      .secondary-bg { fill: #0f3460; }
      .accent { fill: #e94560; }
      .text-color { fill: #ffffff; }
      .icon-bg { fill: rgba(255, 255, 255, 0.1); }
      .card-border { stroke: #e94560; }
    }
    @media (prefers-color-scheme: light) {
      .primary-bg { fill: #f8f9fa; }
      .secondary-bg { fill: #ffffff; }
      .accent { fill: #0056b3; }
      .text-color { fill: #212529; }
      .icon-bg { fill: rgba(0, 0, 0, 0.05); }
      .card-border { stroke: #0056b3; }
    }
  </style>
  
  <!-- 背景 -->
  <rect
     class="primary-bg"
     width="512"
     height="512"
     rx="80" />
  
  <!-- 卡片主体 -->
  <rect
     x="96"
     y="96"
     width="320"
     height="320"
     rx="24"
     class="secondary-bg"
     class="card-border"
     stroke-width="8" />
  
  <!-- 卡片标题 -->
  <rect
     x="136"
     y="136"
     width="240"
     height="24"
     rx="4"
     class="accent" />
  
  <!-- 平台图标和数据行 (微信) -->
  <circle
     cx="156"
     cy="200"
     r="20"
     class="icon-bg" />
  <path
     d="M156 188C151.5 188 148 191.5 148 196C148 198.4 149.2 200.5 151 201.7C151.5 202 151.4 202.1 151.2 202.7C150.9 203.2 150.2 204.5 150.2 204.5C150.2 204.5 150 204.9 150.4 205.1C150.8 205.3 151.2 205 151.2 205C152.8 204.2 154 203.2 154.8 202.6C155.2 202.3 155.5 202.2 156 202.2C160.5 202.2 164 198.7 164 194.2C164 189.7 160.5 188 156 188Z"
     class="accent" />
  <rect
     x="186"
     y="190"
     width="190"
     height="10"
     rx="5"
     class="text-color"
     opacity="0.9" />
  <rect
     x="186"
     y="210"
     width="140"
     height="10"
     rx="5"
     class="accent"
     opacity="0.8" />
  
  <!-- 平台图标和数据行 (B站) -->
  <circle
     cx="156"
     cy="260"
     r="20"
     class="icon-bg" />
  <path
     d="M156 248C154.8 248 148 248 148 255C148 262 154.8 262 156 262C157.2 262 164 262 164 255C164 248 157.2 248 156 248ZM154 258V252L159 255L154 258Z"
     class="accent" />
  <rect
     x="186"
     y="250"
     width="190"
     height="10"
     rx="5"
     class="text-color"
     opacity="0.9" />
  <rect
     x="186"
     y="270"
     width="160"
     height="10"
     rx="5"
     class="accent"
     opacity="0.8" />
  
  <!-- 平台图标和数据行 (微博) -->
  <circle
     cx="156"
     cy="320"
     r="20"
     class="icon-bg" />
  <path
     d="M158 308C157.2 308 152 308 152 315C152 322 157.2 322 158 322C158.8 322 164 322 164 315C164 308 158.8 308 158 308ZM151 313C150.5 313 148 313 148 317C148 321 150.5 321 151 321C151.5 321 154 321 154 317C154 313 151.5 313 151 313Z"
     class="accent" />
  <rect
     x="186"
     y="310"
     width="190"
     height="10"
     rx="5"
     class="text-color"
     opacity="0.9" />
  <rect
     x="186"
     y="330"
     width="120"
     height="10"
     rx="5"
     class="accent"
     opacity="0.8" />
  
  <!-- 统计数据框 -->
  <rect
     x="320"
     y="360"
     width="80"
     height="40"
     rx="8"
     class="accent"
     opacity="0.2" />
  <rect
     x="330"
     y="370"
     width="60"
     height="6"
     rx="3"
     class="text-color"
     opacity="0.9" />
  <rect
     x="330"
     y="385"
     width="40"
     height="6"
     rx="3"
     class="text-color"
     opacity="0.6" />
  
  <!-- Logo Text -->
  <text x="166" y="442" class="text-color" style="font-size: 28px; font-weight: bold; font-family: Arial, sans-serif;">MediaCardFluence</text>
</svg> 